<?xml version="1.0" encoding="utf-8"?>
<!-- Generator: Adobe Illustrator 16.0.4, SVG Export Plug-In . SVG Version: 6.00 Build 0)  -->
<!DOCTYPE svg PUBLIC "-//W3C//DTD SVG 1.1//EN" "http://www.w3.org/Graphics/SVG/1.1/DTD/svg11.dtd">
<svg version="1.1" id="gr_x5F_icon13_x5F_trasncoder"
	 xmlns="http://www.w3.org/2000/svg" xmlns:xlink="http://www.w3.org/1999/xlink" x="0px" y="0px" width="250px" height="250px"
	 viewBox="0 0 250 250" enable-background="new 0 0 250 250" xml:space="preserve">
<g id="gr_x5F_big_31_">
	<path id="gr_215_" fill="#F3BA48" d="M237.666,172.703c0,9.54-6.756,21.249-15.021,26.018l-82.622,47.701
		c-8.262,4.771-21.784,4.771-30.043,0l-82.624-47.701c-8.263-4.769-15.021-16.478-15.021-26.018V77.299
		c0-9.541,6.759-21.249,15.021-26.019l82.624-47.702c8.259-4.771,21.781-4.771,30.043,0l82.622,47.702
		c8.266,4.77,15.021,16.478,15.021,26.019V172.703z"/>
	<g>
		<path fill="#FFFFFF" d="M131.126,103.905l2.225,4.623l-3.962,8.247L124.688,107c-1.109-2.311-4.457-4.414-7.018-4.414H62.505
			c-1.971,0-3.571-1.599-3.571-3.572c0-1.972,1.601-3.571,3.571-3.571h55.165C122.933,95.444,128.845,99.16,131.126,103.905z
			 M184.4,149.2l-15.241-8.799c-1.702-0.982-3.094-0.179-3.094,1.785v5.229h-9.113c-2.563,0-5.911-2.104-7.021-4.414l-4.701-9.772
			l-3.963,8.245l2.226,4.625c2.284,4.743,8.196,8.459,13.459,8.459h9.113v5.229c0,1.964,1.392,2.768,3.094,1.785l15.241-8.8
			C186.103,151.79,186.103,150.183,184.4,149.2z"/>
		<path fill="#FFFFFF" d="M184.4,100.803l-15.241,8.796c-1.702,0.981-3.094,0.178-3.094-1.786v-5.225h-9.113
			c-2.563,0-5.911,2.104-7.021,4.414l-18.806,39.096c-2.281,4.743-8.193,8.459-13.456,8.459H62.505
			c-1.971,0-3.571-1.599-3.571-3.571s1.601-3.571,3.571-3.571h55.165c2.561,0,5.908-2.104,7.018-4.412l18.806-39.098
			c2.284-4.744,8.196-8.459,13.459-8.459h9.113v-5.228c0-1.964,1.392-2.768,3.094-1.786l15.241,8.799
			C186.103,98.213,186.103,99.821,184.4,100.803z"/>
	</g>
</g>
</svg>
