<?xml version="1.0" encoding="iso-8859-1"?>
<!-- Generator: Adobe Illustrator 19.0.0, SVG Export Plug-In . SVG Version: 6.00 Build 0)  -->
<svg version="1.1" id="Layer_1" xmlns="http://www.w3.org/2000/svg" xmlns:xlink="http://www.w3.org/1999/xlink" x="0px" y="0px"
	 viewBox="0 0 473.654 473.654" style="enable-background:new 0 0 473.654 473.654;" xml:space="preserve">
<circle style="fill:#1FA85B;" cx="236.827" cy="236.827" r="236.827"/>
<g>
	<path style="fill:#FFFFFF;" d="M399.903,295.202c-0.135-0.116-0.277-0.224-0.415-0.333c-0.086-0.06-0.146-0.127-0.236-0.187
		c-0.127-0.079-0.251-0.165-0.378-0.243c-0.06-0.037-0.112-0.079-0.176-0.112c-21.948-14.218-43.895-28.436-65.843-42.654
		c-4.473-2.894-10.519,0.939-10.519,6.021c0,9.887,0,19.771,0,29.659c-15.938,0-31.872,0-47.807,0
		c-23.298-40.649-46.595-81.295-69.889-121.94c-2.408-4.2-7.158-6.937-11.997-6.929c-39.681,0.105-79.361,0.209-119.042,0.314
		c-18.107,0.049-18.272,28.103-0.202,28.054c37.007-0.097,74.017-0.194,111.024-0.292c23.294,40.642,46.588,81.28,69.878,121.921
		c0.957,1.668,2.109,2.936,3.354,3.964c0.157,0.131,0.288,0.284,0.449,0.404c0.606,0.453,1.242,0.804,1.885,1.126
		c0.153,0.079,0.28,0.176,0.441,0.247c0.733,0.325,1.485,0.553,2.251,0.729c1.118,0.273,2.304,0.456,3.616,0.456
		c18.679,0,37.358,0,56.034,0c0,9.439,0,18.881,0,28.32c0,5.153,5.995,9.061,10.564,6.099
		c21.899-14.188,43.798-28.376,65.697-42.568c0.232-0.123,0.445-0.273,0.658-0.426c0.011-0.007,0.026-0.019,0.037-0.026
		c0.011-0.007,0.019-0.019,0.03-0.026c0.221-0.161,0.438-0.322,0.639-0.509c1.896-1.541,2.651-3.594,2.543-5.617
		C402.55,298.68,401.754,296.702,399.903,295.202z"/>
	<path style="fill:#FFFFFF;" d="M193.205,272.26c-2.909,5.022-5.823,10.044-8.732,15.063c-36.958-0.097-73.916-0.194-110.875-0.292
		c-18.114-0.049-18.268,28.006-0.202,28.054c39.681,0.105,79.361,0.209,119.042,0.314c5.019,0.015,9.73-2.674,12.243-7.015
		c4.271-7.367,8.541-14.734,12.812-22.101C226.573,270.618,202.281,256.598,193.205,272.26z"/>
	<path style="fill:#FFFFFF;" d="M399.895,167.57c-0.127-0.112-0.258-0.213-0.393-0.314c-0.09-0.064-0.157-0.138-0.251-0.202
		c-0.135-0.086-0.269-0.176-0.408-0.262c-0.045-0.03-0.09-0.064-0.138-0.09c-21.951-14.218-43.899-28.439-65.85-42.665
		c-4.473-2.894-10.519,0.939-10.519,6.021c0,9.472,0,18.948,0,28.425c-18.612,0-37.224,0-55.836,0c-0.325,0-0.602,0.075-0.916,0.09
		c-0.123,0.007-0.243,0.026-0.37,0.037c-2.924,0.236-5.355,1.182-7.244,2.681c-1.496,1.096-2.782,2.502-3.721,4.207
		c-4.192,7.614-8.384,15.224-12.572,22.838c-3.683,6.69-1.586,15.276,5.134,19.158c6.518,3.762,15.471,1.559,19.158-5.134
		c2.902-5.277,5.808-10.549,8.713-15.822c15.886,0,31.768,0,47.653,0c0,9.854,0,19.704,0,29.554c0,5.153,5.995,9.061,10.564,6.099
		c21.899-14.188,43.798-28.372,65.697-42.56c0.232-0.123,0.445-0.273,0.662-0.426c0.011-0.007,0.026-0.019,0.037-0.026
		c0.011-0.007,0.019-0.019,0.03-0.026c0.221-0.161,0.438-0.322,0.639-0.509c1.896-1.541,2.651-3.59,2.543-5.617
		C402.55,171.052,401.754,169.066,399.895,167.57z"/>
</g>
<g>
</g>
<g>
</g>
<g>
</g>
<g>
</g>
<g>
</g>
<g>
</g>
<g>
</g>
<g>
</g>
<g>
</g>
<g>
</g>
<g>
</g>
<g>
</g>
<g>
</g>
<g>
</g>
<g>
</g>
</svg>
