<?xml version="1.0" encoding="iso-8859-1"?>
<!-- Generator: Adobe Illustrator 19.0.0, SVG Export Plug-In . SVG Version: 6.00 Build 0)  -->
<svg version="1.1" id="Layer_1" xmlns="http://www.w3.org/2000/svg" xmlns:xlink="http://www.w3.org/1999/xlink" x="0px" y="0px"
	 viewBox="0 0 512 512" style="enable-background:new 0 0 512 512;" xml:space="preserve">
<path style="fill:#EC5565;" d="M0,256.006C0,397.402,114.606,512.004,255.996,512C397.394,512.004,512,397.402,512,256.006
	C512.009,114.61,397.394,0,255.996,0C114.606,0,0,114.614,0,256.006z"/>
<path style="fill:#D94453;" d="M507.097,305.94c-0.352-0.355-104.966-104.98-105.519-105.519
	c-15.421-15.841-36.931-25.726-60.735-25.726c-22.389,0-40.532,13.439-56.703,32.365c-0.213-0.194-0.481-0.315-0.717-0.483
	c-0.457-0.641-35.265-35.449-35.905-35.905c-1.282-1.797-3.281-3.046-5.657-3.046c-3.904,0-7.07,3.166-7.07,7.07v34.173
	c-0.26-0.27-0.577-0.537-0.843-0.806c-0.515-0.547-7.62-7.613-8.161-8.161c-11.517-12.228-29.593-25.205-54.628-25.205
	c-46.78,0-84.836,38.052-84.836,84.83c0,23.809,9.888,45.324,25.732,60.749c0.539,0.553,187.14,187.152,187.692,187.69
	c0.066,0.068,0.134,0.133,0.202,0.202C404.101,490.14,486.668,409.249,507.097,305.94z"/>
<path style="fill:#F4F6F9;" d="M340.843,174.695c-39.233,0-65.452,41.201-90.807,81.042c-23.306,36.627-47.405,74.497-78.878,74.497
	c-38.981,0-70.695-31.718-70.695-70.709c0-38.978,31.714-70.689,70.695-70.689c31.038,0,49.841,26.178,55.478,35.349h-41.334
	c-3.904,0-7.07,3.166-7.07,7.07s3.166,7.07,7.07,7.07h56.559c3.904,0,7.07-3.166,7.07-7.07v-56.559c0-3.904-3.166-7.07-7.07-7.07
	c-3.904,0-7.07,3.166-7.07,7.07v36.164c-9.707-13.654-30.67-36.164-63.633-36.164c-46.78,0-84.836,38.052-84.836,84.829
	c0,46.786,38.057,84.849,84.836,84.849c39.233,0,65.452-41.198,90.807-81.042c23.306-36.627,47.405-74.497,78.878-74.497
	c38.981,0,70.695,31.711,70.695,70.689c0,38.992-31.714,70.709-70.695,70.709c-37.735,0-56.784-30.627-57.568-31.918
	c-2.01-3.348-6.349-4.432-9.7-2.423c-3.348,2.01-4.432,6.352-2.423,9.7c0.949,1.581,23.792,38.781,69.692,38.781
	c46.78,0,84.835-38.063,84.835-84.849C425.678,212.749,387.622,174.695,340.843,174.695z"/>
<g>
</g>
<g>
</g>
<g>
</g>
<g>
</g>
<g>
</g>
<g>
</g>
<g>
</g>
<g>
</g>
<g>
</g>
<g>
</g>
<g>
</g>
<g>
</g>
<g>
</g>
<g>
</g>
<g>
</g>
</svg>
